<?xml version="1.0" encoding="utf-8"?>
<!-- Generator: Adobe Illustrator 17.0.0, SVG Export Plug-In . SVG Version: 6.00 Build 0)  -->
<!DOCTYPE svg PUBLIC "-//W3C//DTD SVG 1.1//EN" "http://www.w3.org/Graphics/SVG/1.1/DTD/svg11.dtd">
<svg version="1.1" id="Layer_1" xmlns="http://www.w3.org/2000/svg" xmlns:xlink="http://www.w3.org/1999/xlink" x="0px" y="0px"
	 width="50px" height="50px" viewBox="0 0 50 50" enable-background="new 0 0 50 50" xml:space="preserve">
<g>
	<rect x="0.25" y="9.5" fill="#FEFEDD" width="4.5" height="36"/>
	<rect x="4.75" y="9.5" fill="#EFEED5" width="4.5" height="36"/>
	<rect x="9.25" y="9.5" fill="#FEFEDD" width="4.5" height="36"/>
	<rect x="13.75" y="9.5" fill="#EFEED5" width="4.5" height="36"/>
	<rect x="18.25" y="9.5" fill="#FEFEDD" width="4.5" height="36"/>
	<rect x="4.75" y="5" fill="#321032" width="4.5" height="22.5"/>
	<rect x="13.75" y="5" fill="#321032" width="4.5" height="22.5"/>
	<rect x="22.75" y="9.5" fill="#EFEED5" width="4.5" height="36"/>
	<rect x="27.25" y="9.5" fill="#FEFEDD" width="4.5" height="36"/>
	<rect x="22.75" y="5" fill="#321032" width="4.5" height="22.5"/>
	<rect x="31.75" y="9.5" fill="#EFEED5" width="4.5" height="36"/>
	<rect x="36.25" y="9.5" fill="#FEFEDD" width="4.5" height="36"/>
	<rect x="40.75" y="9.5" fill="#EFEED5" width="4.5" height="36"/>
	<rect x="45.25" y="9.5" fill="#FEFEDD" width="4.5" height="36"/>
	<rect x="40.75" y="5" fill="#321032" width="4.5" height="22.5"/>
</g>
</svg>
